<?xml version="1.0" encoding="utf-8"?>
<!-- Generator: Adobe Illustrator 27.0.0, SVG Export Plug-In . SVG Version: 6.00 Build 0)  -->
<svg version="1.1" id="Layer_1" xmlns="http://www.w3.org/2000/svg" xmlns:xlink="http://www.w3.org/1999/xlink" x="0px" y="0px"
	 viewBox="0 0 3700 4000" style="enable-background:new 0 0 3700 4000;" xml:space="preserve">
<style type="text/css">
	.st0{font-family:'BaskOldFace';}
	.st1{font-size:317.5581px;}
	.st2{fill:#FF0000;}
	.st3{fill-rule:evenodd;clip-rule:evenodd;fill:#F1F1F2;}
</style>
<g>
	<text transform="matrix(1 0 0 1 1084.3066 1558.1587)" class="st0 st1">Canada</text>
	<g>
		<g>
			<path d="M1107.8,1655.5c0-35.2,20.8-56.7,48.5-56.7c13.3,0,23.7,6.4,30,13.5l-7.6,9.1c-5.7-6.1-13-10.3-22.2-10.3
				c-20.6,0-34.4,16.9-34.4,44.1c0,27.5,13.1,44.7,33.8,44.7c10.4,0,18.3-4.5,25.3-12.3l7.6,8.7c-8.6,10-19.3,15.8-33.5,15.8
				C1128.2,1712,1107.8,1691,1107.8,1655.5z"/>
			<path d="M1202.9,1689c0-17.6,15.2-26.4,49.7-30.2c0-10.4-3.5-20.4-16.7-20.4c-9.4,0-17.8,4.4-24.1,8.7l-5.4-9.4
				c7.4-4.9,18.8-10.6,31.8-10.6c19.7,0,28.1,13.1,28.1,33.3v49.6H1255l-1.2-9.7h-0.5c-7.7,6.4-16.7,11.7-26.8,11.7
				C1213.1,1712,1202.9,1703.6,1202.9,1689z M1252.6,1690.3v-22.5c-27.1,3.3-36.3,9.9-36.3,20.2c0,9.2,6.2,12.9,14.2,12.9
				C1238.3,1701,1244.8,1697.2,1252.6,1690.3z"/>
			<path d="M1291.8,1629.1h11.3l1.2,14.7h0.5c5.6-10.3,13.9-16.7,23-16.7c3.6,0,6.1,0.5,8.6,1.7l-2.6,12c-2.8-0.9-4.6-1.3-7.8-1.3
				c-6.8,0-15,4.9-20.5,18.6v52h-13.7V1629.1z"/>
			<path d="M1343.6,1669.7c0-26.3,17.7-42.6,36.4-42.6c20.6,0,32.3,14.8,32.3,38c0,2.9-0.2,5.8-0.6,7.8h-54.5
				c1,17.1,11.5,28.3,26.9,28.3c7.8,0,14.1-2.5,20.1-6.5l4.9,9c-7.1,4.6-15.7,8.4-26.7,8.4C1360.7,1712,1343.6,1696.2,1343.6,1669.7
				z M1400.1,1663c0-16.2-7.3-25-19.9-25c-11.4,0-21.5,9.1-23.2,25H1400.1z"/>
			<path d="M1426.1,1669.7c0-26.3,17.7-42.6,36.4-42.6c20.6,0,32.3,14.8,32.3,38c0,2.9-0.2,5.8-0.6,7.8h-54.5
				c1,17.1,11.5,28.3,26.9,28.3c7.8,0,14.1-2.5,20.1-6.5l4.9,9c-7.1,4.6-15.7,8.4-26.7,8.4C1443.3,1712,1426.1,1696.2,1426.1,1669.7
				z M1482.7,1663c0-16.2-7.3-25-19.9-25c-11.4,0-21.5,9.1-23.2,25H1482.7z"/>
			<path d="M1514.7,1629.1h11.3l1.2,14.7h0.5c5.6-10.3,13.9-16.7,23-16.7c3.6,0,6.1,0.5,8.6,1.7l-2.6,12c-2.8-0.9-4.6-1.3-7.8-1.3
				c-6.8,0-15,4.9-20.5,18.6v52h-13.7V1629.1z"/>
			<path class="st2" d="M1566.5,1656.4c0-36,23.9-56.9,52.9-56.9c15.7,0,26.9,6.7,34.2,14.1l-12.9,15.7c-5.4-5-11.2-8.6-20.5-8.6
				c-16.7,0-28.6,13.1-28.6,34.9c0,22.3,10.1,35.3,30.5,35.3c4.3,0,8.8-1.1,11.5-3.2v-18.7h-18v-20h39.8v50
				c-7.5,7.3-20.7,13.1-35.8,13.1C1589.7,1712,1566.5,1692.9,1566.5,1656.4z"/>
			<path class="st2" d="M1672.7,1655.3c0-35.4,20-55.8,49.3-55.8s49.3,20.5,49.3,55.8c0,35.4-20,56.7-49.3,56.7
				S1672.7,1690.7,1672.7,1655.3z M1746.1,1655.3c0-21.8-9.3-34.6-24.1-34.6s-24.1,12.8-24.1,34.6c0,21.8,9.3,35.5,24.1,35.5
				S1746.1,1677.1,1746.1,1655.3z"/>
			<path class="st2" d="M1811.9,1601.5h29.3l34.1,108.5h-26l-14.2-54.9c-3-10.8-5.9-23.7-8.8-35h-0.7c-2.6,11.5-5.5,24.1-8.5,35
				l-14.3,54.9h-25.1L1811.9,1601.5z M1800.3,1665.1h52.2v19.1h-52.2V1665.1z"/>
			<path class="st2" d="M1887.1,1601.5h24.5v87.9h42.8v20.6h-67.4V1601.5z"/>
			<path class="st2" d="M1966.3,1696.3l14.1-16.8c7.7,6.7,17.7,11.3,26.7,11.3c10.2,0,15.2-4,15.2-10.5c0-6.8-6.2-9-15.6-12.9
				l-14.1-6c-11.2-4.6-21.9-13.8-21.9-29.6c0-18,16.1-32.3,38.6-32.3c12.5,0,25.6,4.9,34.9,14.2l-12.4,15.5
				c-7.1-5.5-13.9-8.5-22.5-8.5c-8.5,0-13.8,3.5-13.8,9.7c0,6.7,7.1,9.1,16.6,12.8l13.8,5.6c13.2,5.4,21.5,14.2,21.5,29.5
				c0,18-15,33.6-40.9,33.6C1992.4,1712,1977.3,1706.7,1966.3,1696.3z"/>
		</g>
	</g>
	<path class="st2" d="M875.4,1716.8l170.8-145.1l-35.4-17.4c-15.6-5.8-11.2-14.9-5.6-37l26.1-99.1l-99.2,21.8
		c-9.7,1.5-16.2-4.9-17.6-11l-12.7-46.6l-78.5,91.9c-11.2,14.7-33.8,14.7-26.7-19.3l33.5-186l-45,24.3c-12.6,7.4-25.3,8.6-32.3-4.6
		l-62.1-121.1l-62.1,121.1c-7,13.2-19.7,11.9-32.3,4.6l-45-24.3l33.5,186c7,34-15.6,34-26.7,19.3l-78.5-91.9l-12.7,46.6
		c-1.5,6.1-7.9,12.6-17.6,11l-99.2-21.8l26.1,99.1c5.6,22,9.9,31.2-5.6,37l-35.4,17.4l170.8,145.1c6.8,5.5,10.2,15.4,7.8,24.3
		l-15,51.3c58.8-7.1,111.6-13.4,170.4-20.5c5.2-0.1,13.9,4.6,13.9,10.9l-2.1,51.3h19.7l-1.2-50.9c0-6.3,7.8-11.3,13.1-11.3
		c58.8,7.1,111.6,13.4,170.4,20.5l-15-51.3C865.2,1732.2,868.6,1722.3,875.4,1716.8z"/>
	<g>
		<polygon class="st3" points="966.9,1572.1 690.6,1670 414.3,1572.1 690.6,1474.2 		"/>
		<path class="st3" d="M690.3,1747.5c-11.5-9.1-29.2-20.5-52.6-27.5c-6.6-2-32.4-9.1-65.6-4.5c-8.5,1.2-15.4,2.9-20.4,4.2
			c0-27.4,0-54.8,0-82.2l138.6,50.3C690.3,1707.7,690.3,1727.6,690.3,1747.5z"/>
		<path class="st3" d="M690.3,1747.5c11.5-9.1,29.2-20.5,52.6-27.5c6.6-2,32.4-9.1,65.6-4.5c8.5,1.2,15.4,2.9,20.4,4.2
			c0-27.4,0-54.8,0-82.2l-138.6,50.3C690.3,1707.7,690.3,1727.6,690.3,1747.5z"/>
	</g>
</g>
</svg>
