<?xml version="1.0" encoding="UTF-8"?>
<svg id="Layer_2" data-name="Layer 2" xmlns="http://www.w3.org/2000/svg" viewBox="0 0 148.11 133.62">
  <defs>
    <style>
      .cls-1 {
        letter-spacing: -.04em;
      }

      .cls-2 {
        fill: #fff;
      }

      .cls-3 {
        font-family: TimesNewRomanPS-BoldMT, 'Times New Roman';
        font-size: 19px;
      }

      .cls-3, .cls-4, .cls-5 {
        fill: #f1f2f2;
      }

      .cls-3, .cls-6 {
        font-weight: 700;
      }

      .cls-4, .cls-7 {
        fill-rule: evenodd;
      }

      .cls-6 {
        fill: #231f20;
        font-family: Arial-BoldMT, Arial;
        font-size: 25.3px;
      }

      .cls-8, .cls-7 {
        fill: #d04145;
        stroke: #d04145;
        stroke-miterlimit: 10;
      }
    </style>
  </defs>
  <g id="Layer_1-2" data-name="Layer 1">
    <g>
      <g>
        <path class="cls-5" d="M8.96,72.66H139.28c-.94,3.13-2.29,7.25-3.37,10.57s-2.29,7.44-3.54,10.57c-38.93,.15-77.17-.14-116.1,.02"/>
        <g>
          <g>
            <polygon class="cls-7" points="138.89 72.18 147.32 49.23 126.68 54.31 118.88 43.53 91.98 70.13 106.35 19 89.3 28.55 74.05 1.03 58.81 28.55 42.07 19 56.13 70.13 29.49 43.53 21.74 54.31 .79 49.23 9.21 72.18 138.89 72.18"/>
            <polyline class="cls-7" points="80.89 132.92 80.89 119.16 116.21 122.45 109.33 109.88 130.71 94.32 17.57 94.32 38.78 109.88 32.21 122.45 67.48 119.16 67.48 133.14"/>
            <line class="cls-8" x1="80.89" y1="133.62" x2="80.89" y2="119.16"/>
          </g>
          <text class="cls-6" transform="translate(22.06 92.2) scale(.94 1)"><tspan x="0" y="0">CANAD</tspan><tspan class="cls-1" x="91.34" y="0">A</tspan></text>
          <text class="cls-3" transform="translate(40.79 111.91)"><tspan x="0" y="0">GOALS</tspan></text>
          <g>
            <polygon class="cls-4" points="97.91 42.48 74.05 50.93 50.19 42.48 74.05 34.03 97.91 42.48"/>
            <path class="cls-4" d="M74.03,57.62c-1-.78-2.52-1.77-4.54-2.37-.57-.17-2.79-.79-5.66-.39-.73,.1-1.33,.25-1.76,.37v-7.1l11.97,4.35v5.14Z"/>
            <path class="cls-4" d="M74.03,57.62c1-.78,2.52-1.77,4.54-2.37,.57-.17,2.79-.79,5.66-.39,.73,.1,1.33,.25,1.76,.37,0-2.37,0-4.73,0-7.1l-11.97,4.35v5.14Z"/>
            <g>
              <rect class="cls-5" x="87.85" y="45.47" width=".48" height="5.69"/>
              <path class="cls-4" d="M87.49,57.75v-5.27c0-.31,.27-.57,.59-.57h0c.33,0,.59,.25,.59,.57v5.27"/>
              <ellipse class="cls-5" cx="88.08" cy="51.32" rx=".73" ry=".81"/>
            </g>
          </g>
        </g>
      </g>
      <rect class="cls-2" x="66.71" y="132.92" width="14.9" height=".71"/>
    </g>
  </g>
</svg>